<?xml version="1.0" standalone="no"?>
<!DOCTYPE svg PUBLIC "-//W3C//DTD SVG 20010904//EN"
 "http://www.w3.org/TR/2001/REC-SVG-20010904/DTD/svg10.dtd">
<svg version="1.0" xmlns="http://www.w3.org/2000/svg"
 width="512.000000pt" height="512.000000pt" viewBox="0 0 512.000000 512.000000"
 preserveAspectRatio="xMidYMid meet">

<g transform="translate(0.000000,512.000000) scale(0.100000,-0.100000)"
fill="#000000" stroke="none">
<path d="M1930 4795 c-542 -77 -1004 -362 -1301 -804 -221 -328 -332 -717
-315 -1106 23 -541 254 -1013 671 -1364 206 -174 464 -304 734 -370 180 -44
285 -54 509 -49 163 5 218 10 320 32 206 45 430 133 582 229 l55 35 505 -503
c363 -361 520 -511 559 -533 150 -84 338 -57 453 66 58 61 83 110 99 191 16
82 0 176 -43 252 -22 39 -172 196 -533 559 l-503 505 35 55 c96 152 194 407
235 610 20 100 23 145 23 350 0 205 -3 250 -23 350 -61 308 -184 574 -378 815
-275 344 -663 576 -1104 661 -163 32 -427 40 -580 19z m407 -750 c105 -17 236
-56 308 -92 334 -168 564 -479 616 -833 18 -128 7 -343 -26 -460 -102 -374
-401 -673 -775 -775 -117 -33 -332 -44 -460 -26 -406 60 -761 361 -884 749
-70 223 -72 460 -6 677 23 73 111 251 157 313 41 57 182 200 240 243 76 57
246 144 332 170 160 48 338 60 498 34z"/>
</g>
</svg>
